<svg width="2557" height="2022" viewBox="0 0 2557 2022" fill="none" xmlns="http://www.w3.org/2000/svg">
<g clip-path="url(#clip0_3_89)">
<path d="M1782.5 1495L2107 1603.5L1963 1809L1824.5 1733.5L1774.5 1814.5L1626 1742L1568 1825.5L1417 1742L1589.5 1539.5L1704.5 1603.5L1782.5 1495Z" fill="#FC0B5F" stroke="#FBFA02" stroke-width="10" stroke-linecap="round"/>
<path d="M1765.5 1477L2090 1585.5L1946 1791L1807.5 1715.5L1757.5 1796.5L1609 1724L1551 1807.5L1400 1724L1572.5 1521.5L1687.5 1585.5L1765.5 1477Z" fill="#FBFA02" stroke="#FBFA02" stroke-width="10" stroke-linecap="round"/>
<path d="M1871 1599C1872.67 1604.17 1875.8 1617.1 1875 1627.5V1632.5M1875 1675V1632.5M1914 1599L1912.64 1632.5M1911 1673L1912.64 1632.5M1875 1632.5H1912.64" stroke="black" stroke-width="10" stroke-linecap="round"/>
<path d="M1594.5 1628H1558L1560.75 1660M1603.5 1688L1563.5 1692L1560.75 1660M1560.75 1660H1598" stroke="black" stroke-width="10" stroke-linecap="round"/>
<path d="M1626.5 1704L1622 1625.5L1652 1669.5L1666.5 1621L1679 1690" stroke="black" stroke-width="10" stroke-linecap="round"/>
<path d="M1734.04 1616.53C1694.54 1609.03 1663.84 1684.03 1739.04 1678.03L1734.04 1616.53Z" stroke="black" stroke-width="10" stroke-linecap="round"/>
<path d="M1768.5 1691.5L1765.25 1651.25M1806 1675L1784 1643M1765.25 1651.25L1762 1611L1784 1643M1765.25 1651.25L1784 1643" stroke="black" stroke-width="10" stroke-linecap="round"/>
<path d="M1818.72 1669.95C1841.93 1679.09 1875.47 1656.19 1830.06 1638.32C1810.17 1629.28 1812.64 1607.8 1839.37 1604.64" stroke="black" stroke-width="10" stroke-linecap="round"/>
<mask id="path-9-inside-1_3_89" fill="white">
<path fill-rule="evenodd" clip-rule="evenodd" d="M1686.47 899.643H404C381.909 899.643 364 917.552 364 939.643V1029.64C364 1051.73 381.909 1069.64 404 1069.64H1834C1856.09 1069.64 1874 1051.73 1874 1029.64V939.643C1874 934.994 1873.21 930.531 1871.75 926.38C1864.14 828.138 1837.37 732.136 1792.72 643.872C1739.28 538.226 1661.75 446.626 1566.38 376.472C1471.02 306.317 1360.49 259.574 1243.72 240.016C1140.13 222.664 1034.2 227.143 932.691 252.992C911.282 258.443 899.538 280.981 906.116 302.071L936.247 398.681C942.824 419.77 965.231 431.39 986.727 426.297C1061.02 408.696 1138.22 406.069 1213.79 418.727C1302.53 433.59 1386.53 469.116 1459.01 522.433C1531.49 575.75 1590.42 645.366 1631.03 725.657C1658.76 780.484 1677.42 839.24 1686.47 899.643Z"/>
</mask>
<g filter="url(#filter0_i_3_89)">
<path fill-rule="evenodd" clip-rule="evenodd" d="M1686.47 899.643H404C381.909 899.643 364 917.552 364 939.643V1029.64C364 1051.73 381.909 1069.64 404 1069.64H1834C1856.09 1069.64 1874 1051.73 1874 1029.64V939.643C1874 934.994 1873.21 930.531 1871.75 926.38C1864.14 828.138 1837.37 732.136 1792.72 643.872C1739.28 538.226 1661.75 446.626 1566.38 376.472C1471.02 306.317 1360.49 259.574 1243.72 240.016C1140.13 222.664 1034.2 227.143 932.691 252.992C911.282 258.443 899.538 280.981 906.116 302.071L936.247 398.681C942.824 419.77 965.231 431.39 986.727 426.297C1061.02 408.696 1138.22 406.069 1213.79 418.727C1302.53 433.59 1386.53 469.116 1459.01 522.433C1531.49 575.75 1590.42 645.366 1631.03 725.657C1658.76 780.484 1677.42 839.24 1686.47 899.643Z" fill="#02E9BA"/>
</g>
<path d="M1686.47 899.643V904.643H1692.27L1691.41 898.902L1686.47 899.643ZM1871.75 926.38L1866.76 926.766L1866.81 927.419L1867.03 928.038L1871.75 926.38ZM1792.72 643.872L1797.18 641.615L1797.18 641.615L1792.72 643.872ZM1566.38 376.472L1563.42 380.5L1563.42 380.5L1566.38 376.472ZM1243.72 240.016L1242.9 244.947L1242.9 244.947L1243.72 240.016ZM932.691 252.992L933.924 257.837L933.924 257.837L932.691 252.992ZM906.116 302.071L910.889 300.582L910.889 300.582L906.116 302.071ZM936.247 398.681L931.474 400.17L931.474 400.17L936.247 398.681ZM986.727 426.297L987.88 431.162L987.88 431.162L986.727 426.297ZM1213.79 418.727L1214.61 413.795L1214.61 413.795L1213.79 418.727ZM1459.01 522.433L1461.97 518.405L1461.97 518.405L1459.01 522.433ZM1631.03 725.657L1626.57 727.914L1626.57 727.914L1631.03 725.657ZM404 904.643H1686.47V894.643H404V904.643ZM369 939.643C369 920.313 384.67 904.643 404 904.643V894.643C379.147 894.643 359 914.79 359 939.643H369ZM369 1029.64V939.643H359V1029.64H369ZM404 1064.64C384.67 1064.64 369 1048.97 369 1029.64H359C359 1054.5 379.147 1074.64 404 1074.64V1064.64ZM1834 1064.64H404V1074.64H1834V1064.64ZM1869 1029.64C1869 1048.97 1853.33 1064.64 1834 1064.64V1074.64C1858.85 1074.64 1879 1054.5 1879 1029.64H1869ZM1869 939.643V1029.64H1879V939.643H1869ZM1867.03 928.038C1868.31 931.663 1869 935.566 1869 939.643H1879C1879 934.422 1878.11 929.398 1876.47 924.723L1867.03 928.038ZM1876.73 925.994C1869.08 827.101 1842.12 730.464 1797.18 641.615L1788.26 646.129C1832.61 733.808 1859.21 829.174 1866.76 926.766L1876.73 925.994ZM1797.18 641.615C1743.39 535.269 1665.35 443.063 1569.35 372.444L1563.42 380.5C1658.16 450.189 1735.18 541.182 1788.26 646.129L1797.18 641.615ZM1569.35 372.444C1473.35 301.825 1362.09 254.772 1244.55 235.085L1242.9 244.947C1358.89 264.376 1468.69 310.81 1563.42 380.5L1569.35 372.444ZM1244.55 235.085C1140.27 217.618 1033.64 222.127 931.457 248.146L933.924 257.837C1034.76 232.16 1139.99 227.71 1242.9 244.947L1244.55 235.085ZM931.457 248.146C907.102 254.348 893.965 279.905 901.342 303.559L910.889 300.582C905.111 282.058 915.463 262.538 933.924 257.837L931.457 248.146ZM901.342 303.559L931.474 400.17L941.02 397.192L910.889 300.582L901.342 303.559ZM931.474 400.17C938.898 423.973 964.044 436.809 987.88 431.162L985.575 421.432C966.417 425.97 946.751 415.567 941.02 397.192L931.474 400.17ZM987.88 431.162C1061.53 413.715 1138.05 411.111 1212.96 423.658L1214.61 413.795C1138.39 401.028 1060.52 403.678 985.575 421.432L987.88 431.162ZM1212.96 423.658C1300.93 438.392 1384.2 473.608 1456.05 526.461L1461.97 518.405C1388.86 464.623 1304.13 428.789 1214.61 413.795L1212.96 423.658ZM1456.05 526.461C1527.9 579.313 1586.31 648.322 1626.57 727.914L1635.49 723.4C1594.52 642.409 1535.09 572.187 1461.97 518.405L1456.05 526.461ZM1626.57 727.914C1654.06 782.263 1672.56 840.507 1681.52 900.384L1691.41 898.902C1682.29 837.973 1663.46 778.705 1635.49 723.4L1626.57 727.914Z" fill="black" mask="url(#path-9-inside-1_3_89)"/>
<mask id="path-11-inside-2_3_89" fill="white">
<path fill-rule="evenodd" clip-rule="evenodd" d="M1685 1446.79C1685 1471.7 1674.71 1494.21 1658.14 1510.29C1656.35 1514 1653.9 1517.49 1650.78 1520.58C1545.65 1624.91 1411.9 1696.22 1266.05 1725.18C1120.2 1754.15 969.345 1739.34 832.326 1683.1C828.285 1681.44 824.711 1679.17 821.651 1676.45C795.496 1660.71 778 1632.04 778 1599.29C778 1549.58 818.294 1509.29 868 1509.29C881.589 1509.29 894.474 1512.3 906.025 1517.69C907.373 1518.07 908.713 1518.52 910.039 1519.04C1011.78 1558.83 1123.06 1568.84 1230.76 1547.45C1338.45 1526.07 1437.46 1474.3 1516.29 1398.66C1519.86 1395.23 1523.9 1392.5 1528.2 1390.5C1544.44 1370.83 1569 1358.29 1596.5 1358.29C1645.38 1358.29 1685 1397.91 1685 1446.79Z"/>
</mask>
<path fill-rule="evenodd" clip-rule="evenodd" d="M1685 1446.79C1685 1471.7 1674.71 1494.21 1658.14 1510.29C1656.35 1514 1653.9 1517.49 1650.78 1520.58C1545.65 1624.91 1411.9 1696.22 1266.05 1725.18C1120.2 1754.15 969.345 1739.34 832.326 1683.1C828.285 1681.44 824.711 1679.17 821.651 1676.45C795.496 1660.71 778 1632.04 778 1599.29C778 1549.58 818.294 1509.29 868 1509.29C881.589 1509.29 894.474 1512.3 906.025 1517.69C907.373 1518.07 908.713 1518.52 910.039 1519.04C1011.78 1558.83 1123.06 1568.84 1230.76 1547.45C1338.45 1526.07 1437.46 1474.3 1516.29 1398.66C1519.86 1395.23 1523.9 1392.5 1528.2 1390.5C1544.44 1370.83 1569 1358.29 1596.5 1358.29C1645.38 1358.29 1685 1397.91 1685 1446.79Z" fill="#02E9BA"/>
<path d="M1658.14 1510.29L1654.66 1506.7L1654.02 1507.32L1653.64 1508.12L1658.14 1510.29ZM1650.78 1520.58L1647.26 1517.03L1647.26 1517.03L1650.78 1520.58ZM1266.05 1725.18L1265.07 1720.28L1265.07 1720.28L1266.05 1725.18ZM832.326 1683.1L830.428 1687.73L830.428 1687.73L832.326 1683.1ZM821.651 1676.45L824.976 1672.72L824.629 1672.41L824.23 1672.17L821.651 1676.45ZM906.025 1517.69L903.91 1522.22L904.272 1522.39L904.657 1522.5L906.025 1517.69ZM910.039 1519.04L911.86 1514.39L911.86 1514.39L910.039 1519.04ZM1230.76 1547.45L1229.78 1542.55L1229.78 1542.55L1230.76 1547.45ZM1516.29 1398.66L1519.75 1402.27L1519.75 1402.27L1516.29 1398.66ZM1528.2 1390.5L1530.31 1395.03L1531.34 1394.55L1532.06 1393.68L1528.2 1390.5ZM1661.62 1513.88C1679.12 1496.89 1690 1473.1 1690 1446.79H1680C1680 1470.29 1670.29 1491.52 1654.66 1506.7L1661.62 1513.88ZM1654.31 1524.13C1657.83 1520.63 1660.61 1516.68 1662.65 1512.46L1653.64 1508.12C1652.09 1511.32 1649.98 1514.34 1647.26 1517.03L1654.31 1524.13ZM1267.02 1730.09C1413.84 1700.94 1548.47 1629.15 1654.31 1524.13L1647.26 1517.03C1542.82 1620.67 1409.96 1691.51 1265.07 1720.28L1267.02 1730.09ZM830.428 1687.73C968.354 1744.34 1120.2 1759.24 1267.02 1730.09L1265.07 1720.28C1120.19 1749.05 970.336 1734.34 834.225 1678.48L830.428 1687.73ZM818.326 1680.18C821.804 1683.28 825.859 1685.85 830.428 1687.73L834.225 1678.48C830.711 1677.03 827.619 1675.07 824.976 1672.72L818.326 1680.18ZM824.23 1672.17C799.514 1657.29 783 1630.21 783 1599.29H773C773 1633.86 791.477 1664.12 819.073 1680.73L824.23 1672.17ZM783 1599.29C783 1552.34 821.056 1514.29 868 1514.29V1504.29C815.533 1504.29 773 1546.82 773 1599.29H783ZM868 1514.29C880.843 1514.29 893.007 1517.13 903.91 1522.22L908.14 1513.16C895.94 1507.46 882.334 1504.29 868 1504.29V1514.29ZM911.86 1514.39C910.385 1513.81 908.894 1513.31 907.392 1512.88L904.657 1522.5C905.853 1522.84 907.041 1523.24 908.218 1523.7L911.86 1514.39ZM1229.78 1542.55C1123.03 1563.75 1012.72 1553.82 911.86 1514.39L908.218 1523.7C1010.85 1563.83 1123.1 1573.93 1231.73 1552.36L1229.78 1542.55ZM1512.82 1395.05C1434.69 1470.03 1336.54 1521.35 1229.78 1542.55L1231.73 1552.36C1340.36 1530.79 1440.24 1478.57 1519.75 1402.27L1512.82 1395.05ZM1526.09 1385.97C1521.3 1388.2 1516.8 1391.24 1512.82 1395.05L1519.75 1402.27C1522.92 1399.23 1526.5 1396.81 1530.31 1395.03L1526.09 1385.97ZM1596.5 1353.29C1567.45 1353.29 1541.49 1366.54 1524.35 1387.32L1532.06 1393.68C1547.38 1375.11 1570.56 1363.29 1596.5 1363.29V1353.29ZM1690 1446.79C1690 1395.15 1648.14 1353.29 1596.5 1353.29V1363.29C1642.62 1363.29 1680 1400.67 1680 1446.79H1690Z" fill="black" mask="url(#path-11-inside-2_3_89)"/>
<circle cx="656.5" cy="1463.79" r="86" fill="#02E9BA" stroke="black" stroke-width="5"/>
<mask id="path-14-inside-3_3_89" fill="white">
<path fill-rule="evenodd" clip-rule="evenodd" d="M1713.47 840H431C408.909 840 391 857.909 391 880V970C391 992.091 408.909 1010 431 1010H1861C1883.09 1010 1901 992.091 1901 970V880C1901 876.952 1900.66 873.984 1900.01 871.132C1892.66 771.358 1865.03 673.808 1819.72 584.229C1766.28 478.582 1688.75 386.983 1593.38 316.829C1498.02 246.674 1387.49 199.931 1270.72 180.373C1167.13 163.021 1061.2 167.5 959.691 193.349C938.282 198.8 926.538 221.338 933.116 242.428L963.247 339.038C969.824 360.127 992.231 371.746 1013.73 366.654C1088.02 349.053 1165.22 346.426 1240.79 359.084C1329.53 373.947 1413.53 409.472 1486.01 462.79C1558.49 516.107 1617.42 585.723 1658.03 666.014C1685.76 720.841 1704.42 779.597 1713.47 840Z"/>
</mask>
<path fill-rule="evenodd" clip-rule="evenodd" d="M1713.47 840H431C408.909 840 391 857.909 391 880V970C391 992.091 408.909 1010 431 1010H1861C1883.09 1010 1901 992.091 1901 970V880C1901 876.952 1900.66 873.984 1900.01 871.132C1892.66 771.358 1865.03 673.808 1819.72 584.229C1766.28 478.582 1688.75 386.983 1593.38 316.829C1498.02 246.674 1387.49 199.931 1270.72 180.373C1167.13 163.021 1061.2 167.5 959.691 193.349C938.282 198.8 926.538 221.338 933.116 242.428L963.247 339.038C969.824 360.127 992.231 371.746 1013.73 366.654C1088.02 349.053 1165.22 346.426 1240.79 359.084C1329.53 373.947 1413.53 409.472 1486.01 462.79C1558.49 516.107 1617.42 585.723 1658.03 666.014C1685.76 720.841 1704.42 779.597 1713.47 840Z" fill="#FBFA02"/>
<path d="M1713.47 840V860H1736.69L1733.25 837.037L1713.47 840ZM1900.01 871.132L1880.07 872.602L1880.18 874.091L1880.51 875.547L1900.01 871.132ZM1819.72 584.229L1837.57 575.202L1837.57 575.202L1819.72 584.229ZM1593.38 316.829L1581.53 332.939L1581.53 332.939L1593.38 316.829ZM1270.72 180.373L1267.42 200.098L1267.42 200.098L1270.72 180.373ZM959.691 193.349L964.626 212.73L964.626 212.73L959.691 193.349ZM933.116 242.428L952.208 236.473L952.208 236.473L933.116 242.428ZM963.247 339.038L944.154 344.993L944.154 344.993L963.247 339.038ZM1013.73 366.654L1018.34 386.115L1018.34 386.115L1013.73 366.654ZM1240.79 359.084L1237.48 378.809L1237.48 378.809L1240.79 359.084ZM1486.01 462.79L1474.16 478.9L1474.16 478.9L1486.01 462.79ZM1658.03 666.014L1640.18 675.041L1640.18 675.041L1658.03 666.014ZM431 860H1713.47V820H431V860ZM411 880C411 868.954 419.954 860 431 860V820C397.863 820 371 846.863 371 880H411ZM411 970V880H371V970H411ZM431 990C419.954 990 411 981.046 411 970H371C371 1003.14 397.863 1030 431 1030V990ZM1861 990H431V1030H1861V990ZM1881 970C1881 981.046 1872.05 990 1861 990V1030C1894.14 1030 1921 1003.14 1921 970H1881ZM1881 880V970H1921V880H1881ZM1880.51 875.547C1880.83 876.96 1881 878.448 1881 880H1921C1921 875.457 1920.49 871.008 1919.52 866.716L1880.51 875.547ZM1919.96 869.661C1912.4 767.181 1884.04 667.07 1837.57 575.202L1801.87 593.256C1846.03 680.546 1872.91 775.535 1880.07 872.602L1919.96 869.661ZM1837.57 575.202C1782.72 466.757 1703.13 372.731 1605.24 300.718L1581.53 332.939C1674.37 401.235 1749.85 490.408 1801.87 593.256L1837.57 575.202ZM1605.24 300.718C1507.34 228.705 1393.88 180.724 1274.03 160.648L1267.42 200.098C1381.09 219.138 1488.69 264.643 1581.53 332.939L1605.24 300.718ZM1274.03 160.648C1167.69 142.836 1058.95 147.434 954.755 173.967L964.626 212.73C1063.44 187.566 1166.57 183.206 1267.42 200.098L1274.03 160.648ZM954.755 173.967C921.56 182.42 904.245 217.032 914.023 248.382L952.208 236.473C948.831 225.644 955.005 215.18 964.626 212.73L954.755 173.967ZM914.023 248.382L944.154 344.993L982.34 333.083L952.208 236.473L914.023 248.382ZM944.154 344.993C954.118 376.939 987.486 393.424 1018.34 386.115L1009.12 347.193C996.976 350.069 985.531 343.316 982.34 333.083L944.154 344.993ZM1018.34 386.115C1090.04 369.128 1164.55 366.593 1237.48 378.809L1244.09 339.358C1165.89 326.26 1086 328.978 1009.12 347.193L1018.34 386.115ZM1237.48 378.809C1323.13 393.155 1404.21 427.441 1474.16 478.9L1497.86 446.679C1422.86 391.504 1335.93 354.74 1244.09 339.358L1237.48 378.809ZM1474.16 478.9C1544.11 530.359 1600.98 597.548 1640.18 675.041L1675.87 656.987C1633.85 573.897 1572.87 501.855 1497.86 446.679L1474.16 478.9ZM1640.18 675.041C1666.95 727.957 1684.96 784.665 1693.69 842.963L1733.25 837.037C1723.89 774.529 1704.57 713.725 1675.87 656.987L1640.18 675.041Z" fill="black" mask="url(#path-14-inside-3_3_89)"/>
<mask id="path-16-inside-4_3_89" fill="white">
<path fill-rule="evenodd" clip-rule="evenodd" d="M1712 1387.14C1712 1412.05 1701.71 1434.56 1685.14 1450.65C1683.35 1454.36 1680.9 1457.84 1677.78 1460.94C1572.65 1565.26 1438.9 1636.58 1293.05 1665.54C1147.2 1694.5 996.345 1679.7 859.326 1623.46C855.285 1621.8 851.711 1619.53 848.651 1616.81C822.496 1601.06 805 1572.4 805 1539.64C805 1489.94 845.294 1449.64 895 1449.64C908.589 1449.64 921.474 1452.65 933.025 1458.05C934.373 1458.43 935.713 1458.88 937.039 1459.4C1038.78 1499.18 1150.06 1509.2 1257.76 1487.81C1365.45 1466.43 1464.46 1414.66 1543.29 1339.02C1546.86 1335.59 1550.9 1332.86 1555.2 1330.86C1571.44 1311.18 1596 1298.64 1623.5 1298.64C1672.38 1298.64 1712 1338.27 1712 1387.14Z"/>
</mask>
<path fill-rule="evenodd" clip-rule="evenodd" d="M1712 1387.14C1712 1412.05 1701.71 1434.56 1685.14 1450.65C1683.35 1454.36 1680.9 1457.84 1677.78 1460.94C1572.65 1565.26 1438.9 1636.58 1293.05 1665.54C1147.2 1694.5 996.345 1679.7 859.326 1623.46C855.285 1621.8 851.711 1619.53 848.651 1616.81C822.496 1601.06 805 1572.4 805 1539.64C805 1489.94 845.294 1449.64 895 1449.64C908.589 1449.64 921.474 1452.65 933.025 1458.05C934.373 1458.43 935.713 1458.88 937.039 1459.4C1038.78 1499.18 1150.06 1509.2 1257.76 1487.81C1365.45 1466.43 1464.46 1414.66 1543.29 1339.02C1546.86 1335.59 1550.9 1332.86 1555.2 1330.86C1571.44 1311.18 1596 1298.64 1623.5 1298.64C1672.38 1298.64 1712 1338.27 1712 1387.14Z" fill="#FBFA02"/>
<path d="M1685.14 1450.65L1671.21 1436.3L1668.67 1438.77L1667.13 1441.96L1685.14 1450.65ZM1677.78 1460.94L1663.7 1446.74L1663.7 1446.74L1677.78 1460.94ZM1293.05 1665.54L1289.15 1645.92L1289.15 1645.92L1293.05 1665.54ZM859.326 1623.46L851.732 1641.96L851.732 1641.96L859.326 1623.46ZM848.651 1616.81L861.952 1601.87L860.561 1600.63L858.966 1599.67L848.651 1616.81ZM933.025 1458.05L924.565 1476.17L926.015 1476.85L927.554 1477.28L933.025 1458.05ZM937.039 1459.4L944.323 1440.77L944.323 1440.77L937.039 1459.4ZM1257.76 1487.81L1253.86 1468.19L1253.86 1468.19L1257.76 1487.81ZM1543.29 1339.02L1557.13 1353.45L1557.13 1353.45L1543.29 1339.02ZM1555.2 1330.86L1563.64 1348.99L1567.75 1347.08L1570.63 1343.58L1555.2 1330.86ZM1699.07 1465C1719.36 1445.3 1732 1417.68 1732 1387.14H1692C1692 1406.43 1684.06 1423.82 1671.21 1436.3L1699.07 1465ZM1691.87 1475.14C1696.62 1470.42 1700.39 1465.07 1703.16 1459.33L1667.13 1441.96C1666.31 1443.65 1665.19 1445.26 1663.7 1446.74L1691.87 1475.14ZM1296.94 1685.16C1446.66 1655.43 1583.95 1582.22 1691.87 1475.14L1663.7 1446.74C1561.35 1548.3 1431.14 1617.73 1289.15 1645.92L1296.94 1685.16ZM851.732 1641.96C992.38 1699.69 1147.23 1714.89 1296.94 1685.16L1289.15 1645.92C1147.16 1674.12 1000.31 1659.71 866.921 1604.96L851.732 1641.96ZM835.35 1631.74C840.082 1635.96 845.582 1639.44 851.732 1641.96L866.921 1604.96C864.988 1604.16 863.34 1603.11 861.952 1601.87L835.35 1631.74ZM858.966 1599.67C838.57 1587.39 825 1565.09 825 1539.64H785C785 1579.7 806.421 1614.73 838.337 1633.94L858.966 1599.67ZM825 1539.64C825 1500.98 856.34 1469.64 895 1469.64V1429.64C834.249 1429.64 785 1478.89 785 1539.64H825ZM895 1469.64C905.606 1469.64 915.608 1471.99 924.565 1476.17L941.484 1439.92C927.339 1433.32 911.572 1429.64 895 1429.64V1469.64ZM944.323 1440.77C942.4 1440.02 940.455 1439.37 938.495 1438.81L927.554 1477.28C928.292 1477.49 929.026 1477.74 929.756 1478.03L944.323 1440.77ZM1253.86 1468.19C1149.92 1488.83 1042.52 1479.17 944.323 1440.77L929.756 1478.03C1035.04 1519.2 1150.2 1529.56 1261.65 1507.43L1253.86 1468.19ZM1529.44 1324.59C1453.36 1397.59 1357.8 1447.56 1253.86 1468.19L1261.65 1507.43C1373.1 1485.3 1475.56 1431.72 1557.13 1353.45L1529.44 1324.59ZM1546.76 1312.72C1540.5 1315.64 1534.63 1319.61 1529.44 1324.59L1557.13 1353.45C1559.1 1351.57 1561.3 1350.08 1563.64 1348.99L1546.76 1312.72ZM1623.5 1278.64C1589.78 1278.64 1559.65 1294.05 1539.78 1318.13L1570.63 1343.58C1583.23 1328.32 1602.22 1318.64 1623.5 1318.64V1278.64ZM1732 1387.14C1732 1327.22 1683.42 1278.64 1623.5 1278.64V1318.64C1661.33 1318.64 1692 1349.31 1692 1387.14H1732Z" fill="black" mask="url(#path-16-inside-4_3_89)"/>
<circle cx="683.5" cy="1404.14" r="78.5" fill="#FBFA02" stroke="black" stroke-width="20"/>
<g filter="url(#filter1_d_3_89)">
<path d="M1834 1144.64C1892.22 1144.64 1940.33 1101.38 1947.95 1045.25C1965.41 1025.11 1976 998.825 1976 970V880C1976 873.697 1975.49 867.466 1974.49 861.358C1965.92 752.928 1935.66 647.272 1886.65 550.378C1827.9 434.236 1742.67 333.538 1637.83 256.414C1532.99 179.291 1411.48 127.904 1283.11 106.403C1169.22 87.3279 1052.77 92.2517 941.183 120.668C893.625 132.778 863.393 171.742 857.433 214.953C831.819 244.3 822.559 286.06 834.517 324.401L864.648 421.011C883.924 482.815 947.436 512.681 1004.02 499.277C1068.6 483.977 1135.71 481.693 1201.4 492.696C1278.54 505.617 1351.56 536.499 1414.57 582.847C1477.58 629.196 1528.8 689.712 1564.1 759.509C1565.03 761.334 1565.94 763.165 1566.84 765H431C372.782 765 324.668 808.26 317.051 864.389C299.59 884.531 289 910.819 289 939.643V1029.64C289 1093.16 340.487 1144.64 404 1144.64H1834Z" stroke="white" stroke-width="150"/>
<path d="M1786.05 1405.15L1789.28 1406.23L2113.78 1514.73L2209.09 1546.6L2202.1 1556.57L2226.09 1564.6L2168.42 1646.9L2024.42 1852.4L1985.96 1907.29L1927.1 1875.21L1850.99 1833.72L1838.32 1854.25L1802.64 1912.06L1741.6 1882.25L1650.9 1837.97L1629.6 1868.64L1590.97 1924.26L1531.71 1891.49L1380.71 1807.99L1339.47 1785.18C1320.09 1790.52 1300.47 1795.17 1280.66 1799.11C1120.31 1830.94 954.478 1814.67 803.848 1752.84L803.848 1752.84C794.393 1748.96 785.66 1743.89 777.803 1737.82C738.393 1712.06 710.534 1669.7 704.313 1620.54C689.19 1625.16 673.136 1627.64 656.5 1627.64C566.201 1627.64 493 1554.44 493 1464.14C493 1428.37 504.548 1395.21 524.027 1368.31C540.509 1295.41 605.635 1241 683.5 1241C766.352 1241 834.81 1302.63 845.538 1382.54C861.152 1377.64 877.767 1375 895 1375C917.871 1375 939.822 1379.7 959.801 1388.23C961.325 1388.76 962.842 1389.32 964.353 1389.91L1786.05 1405.15ZM1786.05 1405.15C1786.68 1399.35 1787 1393.46 1787 1387.5C1787 1297.2 1713.8 1224 1623.5 1224C1578.15 1224 1537.09 1242.53 1507.55 1272.23C1501.85 1276.05 1496.42 1280.4 1491.36 1285.26L1491.36 1285.26C1422.84 1351.01 1336.77 1396.02 1243.15 1414.6C1149.53 1433.19 1052.8 1424.49 964.354 1389.91L1786.05 1405.15Z" stroke="white" stroke-width="150"/>
</g>
</g>
<defs>
<filter id="filter0_i_3_89" x="364" y="229.643" width="1520" height="850" filterUnits="userSpaceOnUse" color-interpolation-filters="sRGB">
<feFlood flood-opacity="0" result="BackgroundImageFix"/>
<feBlend mode="normal" in="SourceGraphic" in2="BackgroundImageFix" result="shape"/>
<feColorMatrix in="SourceAlpha" type="matrix" values="0 0 0 0 0 0 0 0 0 0 0 0 0 0 0 0 0 0 127 0" result="hardAlpha"/>
<feOffset dx="10" dy="10"/>
<feGaussianBlur stdDeviation="20"/>
<feComposite in2="hardAlpha" operator="arithmetic" k2="-1" k3="1"/>
<feColorMatrix type="matrix" values="0 0 0 0 0 0 0 0 0 0 0 0 0 0 0 0 0 0 0.25 0"/>
<feBlend mode="normal" in2="shape" result="effect1_innerShadow_3_89"/>
</filter>
<filter id="filter1_d_3_89" x="194" y="0" width="2191.18" height="2062.66" filterUnits="userSpaceOnUse" color-interpolation-filters="sRGB">
<feFlood flood-opacity="0" result="BackgroundImageFix"/>
<feColorMatrix in="SourceAlpha" type="matrix" values="0 0 0 0 0 0 0 0 0 0 0 0 0 0 0 0 0 0 127 0" result="hardAlpha"/>
<feOffset dx="10" dy="10"/>
<feGaussianBlur stdDeviation="15"/>
<feComposite in2="hardAlpha" operator="out"/>
<feColorMatrix type="matrix" values="0 0 0 0 0 0 0 0 0 0 0 0 0 0 0 0 0 0 0.25 0"/>
<feBlend mode="normal" in2="BackgroundImageFix" result="effect1_dropShadow_3_89"/>
<feBlend mode="normal" in="SourceGraphic" in2="effect1_dropShadow_3_89" result="shape"/>
</filter>
<clipPath id="clip0_3_89">
<rect width="2557" height="2022" fill="white"/>
</clipPath>
</defs>
</svg>
